<svg width="64" height="62" viewBox="0 0 64 62" fill="none" xmlns="http://www.w3.org/2000/svg">
<path d="M19.3984 0.887695L6.47983 4.59277C4.83237 5.4541 3.27104 7.86035 2.24019 10.9297C1.4103 13.418 0.924951 16.248 0.74585 18.9004L15.9394 11.3125L19.3984 0.887695ZM45.1015 0.901367L48.5742 11.3125L63.75 18.9141C63.5722 16.2754 63.08 13.418 62.2597 10.9434C61.4804 8.61231 60.4003 6.65723 59.1835 5.46777C58.8144 5.08496 58.4316 4.79785 58.0351 4.59277L45.1015 0.901367ZM21.4628 2.47363L17.9492 13.0625L5.248 19.4062L7.173 26.7207L19.3164 32.791L32.25 30.6172L45.1835 32.791L57.3242 26.7207L59.2519 19.4062L46.5644 13.0625L43.0371 2.4873H41.6015L33.4941 12.5977L33.4804 20.9512H31.0058L31.0195 12.6113L22.9121 2.47363H21.4628ZM8.00288 29.8652L11.0175 41.3359L31.0058 35.3477V33.3379L18.9199 35.3477L8.00288 29.8652ZM56.5039 29.8652L45.5664 35.3477L33.4804 33.3379V35.3477L53.4824 41.3359L56.5039 29.8652ZM31.0058 37.8906L26.6855 39.2031L21.8867 48.8008L31.0058 44.248V37.8906ZM33.4804 37.8906V44.248L42.6269 48.8145L37.8144 39.2031L33.4804 37.8906ZM23.4589 40.1602L11.6464 43.7148L15.1054 56.8809L23.4589 40.1602ZM41.041 40.1738L49.3945 56.8672L52.8535 43.7148L41.041 40.1738ZM33.4804 47.0098L33.4941 52.916L47.2617 58.084L44.4726 52.5059L33.4804 47.0098ZM31.0058 47.0098L20.041 52.4922L17.2382 58.084L31.0195 52.916L31.0058 47.0098ZM31.0195 55.541L19.8632 59.7246L31.0195 61.1191V55.541ZM33.4941 55.541V61.1055L44.664 59.7109L33.4941 55.541Z" fill="#F59E0B"/>
</svg>
