<svg width="66" height="42" viewBox="0 0 66 42" fill="none" xmlns="http://www.w3.org/2000/svg">
<path d="M32.75 0.386719C29.9015 0.386719 27.418 3.15391 27.418 6.8125C27.418 10.4711 29.9015 13.2383 32.75 13.2383C35.5985 13.2383 38.082 10.4711 38.082 6.8125C38.082 3.15391 35.5985 0.386719 32.75 0.386719ZM25.0727 8.32256C20.7993 9.49287 18.6146 12.9735 16.5996 16.7239C14.2324 21.1799 12.7543 26.4381 11.6654 30.7383H9.91797V23.2188H7.45703V30.7383H5.26953V25.4062H2.80859V30.7383H0.484375V33.1992H2.80859V38.5312H5.26953V33.1992H7.45703V40.7188H9.91797V33.1992H21.4833C22.2253 34.9766 23.1113 36.7539 24 38.5312L17.4375 39.3516V41.4023H27.3893L25.7008 33.1992H39.7992L38.1107 41.4023H48.0625V39.3516L41.5 38.5312C42.3887 36.7539 43.2746 34.9766 44.0167 33.1992H55.582V40.7188H58.043V33.1992H60.2305V38.5312H62.6914V33.1992H65.0156V30.7383H62.6914V25.4062H60.2305V30.7383H58.043V23.2188H55.582V30.7383H53.8348C52.7455 26.4367 51.262 21.1656 48.7957 16.6936C46.7426 12.9707 44.7438 9.649 40.4127 8.41621C39.756 12.4871 36.6498 15.6992 32.75 15.6992C28.8203 15.6992 25.6963 12.4377 25.0727 8.32256ZM24.5794 14.9377L25.9521 21.8064C21.8125 23.2188 19.625 23.2188 19.625 25.4062C19.625 27.1836 19.9859 28.9609 20.5615 30.7383H16.1821C17.2207 26.781 18.5935 22.2954 20.4628 18.7762C21.6944 16.7902 22.8595 16.2081 24.5794 14.9377ZM40.89 15.1223C42.4376 16.2506 43.757 16.6166 44.9647 18.8064C46.8974 22.3108 48.2778 26.784 49.3173 30.7383H44.9385C45.5141 28.9609 45.875 27.1836 45.875 25.4062C45.875 23.2188 43.6875 23.2188 39.5477 21.8064L40.89 15.1223ZM32.75 25.4062C35.8877 25.4062 40.9531 27.5938 40.9531 27.5938L40.3059 30.7383H25.1941L24.5469 27.5938C24.5469 27.5938 29.6123 25.4062 32.75 25.4062Z" fill="#F59E0B"/>
</svg>
