<svg width="70" height="70" viewBox="0 0 70 70" fill="none" xmlns="http://www.w3.org/2000/svg">
<path d="M30.1325 13.3904C30.9441 14.247 31.7554 15.1039 32.5671 15.9604C32.6707 16.0698 32.7786 16.1877 32.8081 16.3352C32.8352 16.4706 32.7911 16.6097 32.7935 16.7478C32.7983 17.0604 33.0311 17.3167 33.2494 17.5405C33.5226 17.8204 33.7954 18.1003 34.0682 18.3802C34.2418 18.5581 34.4216 18.7462 34.4916 18.9845C34.5861 19.3066 34.4618 19.653 34.5021 19.9866C34.5299 20.2175 34.6351 20.4309 34.7346 20.6413C35.3134 21.8655 35.7494 23.1569 36.0307 24.4814C36.0977 24.7968 36.1501 25.1486 35.9802 25.4227C35.8282 25.6678 35.5389 25.7843 35.308 25.9582C35.0772 26.1317 34.8931 26.4602 35.0559 26.6986C35.128 26.8049 35.2518 26.863 35.3706 26.9126C36.6291 27.4407 38.0012 27.621 39.3548 27.7962C39.5948 27.8273 39.8374 27.8583 40.0778 27.8306C40.4998 27.7827 40.8965 27.5447 41.1378 27.1956C42.1289 25.7597 43.5417 24.6583 45.2533 24.3092C47.4006 23.8713 49.6673 24.658 51.8014 24.1613C52.7017 23.0556 53.9347 22.0947 55.2768 21.6089C56.215 21.2689 57.2653 21.1119 58.2076 21.4404C58.4367 21.5201 58.6622 21.6288 58.9048 21.6413C59.1929 21.6558 59.4677 21.5323 59.7297 21.4114C60.0276 21.274 60.3251 21.1369 60.6229 20.9995C60.2391 19.1574 59.838 17.1533 59.9013 15.273C59.9172 14.7956 59.9609 14.3182 59.9406 13.8415C59.9291 13.5781 59.8983 13.3162 59.8603 13.0552C59.7006 11.9471 59.4197 10.8566 59.0237 9.80924C58.5863 8.6522 58.0116 7.55256 57.4383 6.45629C57.3056 6.20239 56.8591 6.15749 56.5721 6.1737C56.2851 6.18956 56.0055 6.27093 55.7195 6.29592C54.5965 6.39417 53.5716 5.62641 52.4485 5.5312C51.9476 5.48866 51.4466 5.58184 50.9518 5.6703C50.8428 5.68988 50.7274 5.70845 50.6248 5.6676C50.5108 5.62235 50.4363 5.5133 50.3737 5.40796C50.2464 5.19492 50.1364 4.97175 50.0444 4.74149C49.9848 4.59294 49.9371 4.41129 50.0328 4.28333C50.0799 4.22087 50.154 4.1834 50.2011 4.12127C50.3253 3.95786 50.2133 3.72321 50.2461 3.52098C50.2657 3.39909 50.3382 3.29342 50.4065 3.19044C50.8035 2.59082 51.12 1.93785 51.3441 1.25484C51.4385 0.96752 51.5221 0.66467 51.7211 0.436773C52.0292 0.0836175 52.5423 -0.00821649 53.0117 0.000561721C53.9821 0.0184558 54.9427 0.382753 55.6806 1.01209C55.8789 1.1809 56.061 1.36794 56.2577 1.53912C56.4269 1.68632 56.6063 1.82171 56.7857 1.95676C57.2111 2.27717 57.6366 2.59757 58.0621 2.91798C58.386 3.16174 58.7095 3.40585 59.0335 3.64961C59.4437 3.95854 59.8556 4.26848 60.3048 4.519C61.1015 4.96331 61.2623 5.93061 61.7236 6.7166C62.0049 7.19602 62.3495 7.52588 62.6744 7.97661C63.2772 8.81359 63.8804 9.65056 64.4832 10.4875C64.8836 11.0429 65.2837 11.5983 65.6624 12.1686C67.6987 15.2349 69.0942 18.7225 69.7342 22.3449C69.8117 22.7838 69.5914 23.213 69.3419 23.583C69.0908 23.9551 68.7506 24.2569 68.4216 24.5624C66.7469 26.1179 65.2688 27.8735 63.6015 29.4367C61.9345 31.0003 60.0292 32.393 57.8288 33.0193C55.8617 33.5791 53.6572 33.5352 51.9659 34.6838C49.7472 36.1909 50.5087 39.7961 49.5106 42.282C49.0699 43.3793 48.4573 44.4084 48.1076 45.5377C47.4229 47.7492 46.9521 50.0443 45.9827 52.1471C45.6263 52.9212 45.2164 53.6779 44.9876 54.499C44.5391 56.1101 44.8231 57.83 45.2306 59.4523C45.6375 61.0742 46.1682 62.6887 46.2091 64.3607C46.2565 66.305 47.2814 68.1299 47.8176 70H22.393C22.833 68.6502 23.3143 67.4347 23.8968 66.1399C24.0681 65.7588 24.2471 65.3762 24.3311 64.967C24.4099 64.5825 24.4028 64.1861 24.4286 63.7941C24.5626 61.741 25.5997 59.7693 25.3861 57.7229C25.3076 56.968 25.4318 56.2205 25.1813 55.5041C24.9308 54.7876 24.5507 54.1242 24.172 53.4662C23.2253 51.8226 22.2654 50.1743 21.0489 48.7185C20.7253 49.1469 20.3483 49.5801 20.025 50.0086C19.6994 50.4397 19.3735 50.8715 19.0286 51.2875C17.6381 52.9648 15.9245 54.3919 13.9607 55.3403C12.8298 55.8866 11.6191 56.2745 10.5472 56.9285C10.0374 57.2391 9.55987 57.6098 9.00951 57.8415C8.3874 58.1031 7.70234 58.174 7.02743 58.1946C5.96768 58.227 4.85174 58.1244 3.96799 57.54C3.61971 57.3097 3.47044 56.8924 3.28293 56.52C3.03754 56.0338 2.79248 55.5476 2.54743 55.0611C2.31862 54.6073 2.08914 54.1526 1.89892 53.6812C1.33672 52.2885 1.12551 50.7817 0.980987 49.287C0.863876 48.0746 0.78772 46.8585 0.752181 45.641C0.707502 44.0971 1.36278 42.5352 1.48632 40.9953C1.58583 39.7569 1.39223 38.476 1.76827 37.2912C2.06714 36.3503 2.43066 35.3479 2.93261 34.4971C3.98458 32.7134 5.03654 30.9294 6.08851 29.1457C6.16365 29.0181 6.24116 28.8878 6.35489 28.7929C6.59453 28.5933 6.94857 28.5917 7.24473 28.6896C7.54089 28.7875 7.8005 28.9691 8.07669 29.114C8.7648 29.4745 9.56122 29.6062 10.2246 30.0107C10.3306 30.0752 10.4365 30.1505 10.4961 30.2592C10.5597 30.3757 10.5624 30.5144 10.5976 30.6424C10.6721 30.9159 10.888 31.1235 11.0549 31.3528C11.2221 31.582 11.3456 31.8926 11.2123 32.1428C11.1574 32.2451 11.0667 32.3228 10.9757 32.3947C10.5617 32.7222 10.0936 32.998 9.77683 33.4197C9.60861 33.6435 9.48947 33.9005 9.32802 34.1294C8.48928 35.3219 6.6673 35.5798 5.97546 36.8625C5.71281 37.3496 5.65628 37.9199 5.64715 38.4733C5.62853 39.603 5.78693 40.7354 6.11491 41.8168C6.36267 42.6331 6.89983 43.2584 7.34491 43.9867C7.55883 44.3371 7.77917 44.6845 8.03269 45.0073C8.22799 45.2561 8.44291 45.4908 8.6152 45.7562C8.83148 46.0897 8.97533 46.4642 9.11444 46.8366C9.37642 46.3362 9.51688 45.7636 9.69153 45.2268C9.95148 44.429 10.4778 43.7379 11.0962 43.1696C11.7146 42.6011 12.426 42.1443 13.1365 41.6952C13.1026 40.5841 13.6374 39.5435 14.136 38.5492C14.447 37.9287 14.7882 37.3203 15.2012 36.7615C16.9974 34.3326 20.2038 33.0267 23.1901 33.5082C23.4341 33.5473 23.7222 33.4251 23.8982 33.2519C24.57 32.5898 25.2419 31.9277 25.9141 31.2656C26.1338 31.0492 26.3561 30.8294 26.5139 30.5644C26.8483 30.0016 26.8506 29.2899 26.6652 28.6622C26.4793 28.0346 26.124 27.4721 25.7662 26.9235C25.5299 26.5608 25.2849 26.1928 24.9407 25.9298C24.7146 25.7566 24.4536 25.6357 24.2085 25.4899C23.2588 24.9261 22.5321 23.9888 21.4903 23.6201C20.0751 23.1198 18.9876 21.7345 18.4664 20.3293C18.2589 19.7695 18.1763 19.1642 18.2264 18.5696C18.2613 18.156 18.3591 17.7505 18.4566 17.3467C18.5937 16.7795 18.7304 16.212 18.8675 15.6451C18.9199 15.428 18.9731 15.2092 19.0706 15.0087C19.2713 14.5961 19.6416 14.2953 20.002 14.01C20.7934 13.384 21.5959 12.7635 22.4807 12.2773C23.3654 11.7908 24.3419 11.44 25.3509 11.393C25.8451 11.3697 26.3399 11.4194 26.8297 11.4879C27.4545 11.5757 28.0823 11.6969 28.654 11.9633C29.225 12.2304 29.6992 12.9329 30.1325 13.3904Z" fill="#F59E0B"/>
</svg>
